<svg xmlns="http://www.w3.org/2000/svg" aria-hidden="true" width="1em" height="1em" style="-ms-transform:rotate(360deg);-webkit-transform:rotate(360deg)" viewBox="0 0 1536 1536" transform="rotate(360)"><path d="M627 1267l-102-102q-19-19-19-45t19-45l307-307-307-307q-19-19-19-45t19-45l102-102q19-19 45-19t45 19l454 454q19 19 19 45t-19 45l-454 454q-19 19-45 19t-45-19zM0 768q0 209 103 385.5T382.5 1433 768 1536t385.5-103 279.5-279.5T1536 768t-103-385.5T1153.5 103 768 0 382.5 103 103 382.5 0 768z" fill="#FFF"/><path fill="rgba(0, 0, 0, 0)" d="M0 0h1536v1536H0z"/></svg>